<svg width="39" height="39" viewBox="0 0 39 39" fill="none" xmlns="http://www.w3.org/2000/svg">
<path d="M3.25 12.125C3.25 10.2394 3.25 9.29657 3.83579 8.71079C4.42157 8.125 5.36438 8.125 7.25 8.125H31.75C33.6356 8.125 34.5784 8.125 35.1642 8.71079C35.75 9.29657 35.75 10.2394 35.75 12.125V15.25C35.75 15.7214 35.75 15.9571 35.6036 16.1036C35.4571 16.25 35.2214 16.25 34.75 16.25H4.25C3.7786 16.25 3.54289 16.25 3.39645 16.1036C3.25 15.9571 3.25 15.7214 3.25 15.25V12.125Z" fill="white"/>
<path fill-rule="evenodd" clip-rule="evenodd" d="M3.25 31.75C3.25 33.6356 3.25 34.5784 3.83579 35.1642C4.42157 35.75 5.36438 35.75 7.25 35.75H31.75C33.6356 35.75 34.5784 35.75 35.1642 35.1642C35.75 34.5784 35.75 33.6356 35.75 31.75V20.5C35.75 20.0286 35.75 19.7929 35.6036 19.6464C35.4571 19.5 35.2214 19.5 34.75 19.5H4.25C3.7786 19.5 3.54289 19.5 3.39645 19.6464C3.25 19.7929 3.25 20.0286 3.25 20.5V31.75ZM11.375 23.75C11.375 23.2786 11.375 23.0429 11.5214 22.8964C11.6679 22.75 11.9036 22.75 12.375 22.75H16.875C17.3464 22.75 17.5821 22.75 17.7286 22.8964C17.875 23.0429 17.875 23.2786 17.875 23.75V25C17.875 25.4714 17.875 25.7071 17.7286 25.8536C17.5821 26 17.3464 26 16.875 26H12.375C11.9036 26 11.6679 26 11.5214 25.8536C11.375 25.7071 11.375 25.4714 11.375 25V23.75ZM11.5214 29.3964C11.375 29.5429 11.375 29.7786 11.375 30.25V31.5C11.375 31.9714 11.375 32.2071 11.5214 32.3536C11.6679 32.5 11.9036 32.5 12.375 32.5H16.875C17.3464 32.5 17.5821 32.5 17.7286 32.3536C17.875 32.2071 17.875 31.9714 17.875 31.5V30.25C17.875 29.7786 17.875 29.5429 17.7286 29.3964C17.5821 29.25 17.3464 29.25 16.875 29.25H12.375C11.9036 29.25 11.6679 29.25 11.5214 29.3964ZM21.125 23.75C21.125 23.2786 21.125 23.0429 21.2714 22.8964C21.4179 22.75 21.6536 22.75 22.125 22.75H26.625C27.0964 22.75 27.3321 22.75 27.4786 22.8964C27.625 23.0429 27.625 23.2786 27.625 23.75V25C27.625 25.4714 27.625 25.7071 27.4786 25.8536C27.3321 26 27.0964 26 26.625 26H22.125C21.6536 26 21.4179 26 21.2714 25.8536C21.125 25.7071 21.125 25.4714 21.125 25V23.75ZM21.2714 29.3964C21.125 29.5429 21.125 29.7786 21.125 30.25V31.5C21.125 31.9714 21.125 32.2071 21.2714 32.3536C21.4179 32.5 21.6536 32.5 22.125 32.5H26.625C27.0964 32.5 27.3321 32.5 27.4786 32.3536C27.625 32.2071 27.625 31.9714 27.625 31.5V30.25C27.625 29.7786 27.625 29.5429 27.4786 29.3964C27.3321 29.25 27.0964 29.25 26.625 29.25H22.125C21.6536 29.25 21.4179 29.25 21.2714 29.3964Z" fill="white"/>
<path d="M11.375 4.875L11.375 9.75" stroke="white" stroke-width="2" stroke-linecap="round"/>
<path d="M27.625 4.875L27.625 9.75" stroke="white" stroke-width="2" stroke-linecap="round"/>
</svg>
