<svg width="25" height="17" viewBox="0 0 25 17" fill="none" xmlns="http://www.w3.org/2000/svg">
<path fill-rule="evenodd" clip-rule="evenodd" d="M23.4375 2.25C23 2.25 22.6094 2.42187 22.3281 2.70312L18.75 6.29687V2.25C18.75 1.39062 18.0469 0.6875 17.1875 0.6875H1.5625C0.703125 0.6875 0 1.39062 0 2.25V14.75C0 15.6094 0.703125 16.3125 1.5625 16.3125H17.1875C18.0469 16.3125 18.75 15.6094 18.75 14.75V10.7031L22.3281 14.2812C22.6094 14.5781 23 14.75 23.4375 14.75C24.2969 14.75 25 14.0469 25 13.1875V3.8125C25 2.95312 24.2969 2.25 23.4375 2.25Z" fill="black" fill-opacity="0.37"/>
</svg>
