<svg width="116" height="116" viewBox="0 0 116 116" fill="none" xmlns="http://www.w3.org/2000/svg">
<path fill-rule="evenodd" clip-rule="evenodd" d="M55.439 0.418161C54.543 0.676077 46.8489 2.86268 38.341 5.27725C29.8328 7.69205 22.7502 9.79694 22.6017 9.95526C22.4532 10.1134 17.6116 16.3679 11.8426 23.854L1.35341 37.465L0.676706 49.6628L0 61.8605L0.999236 68.0881L1.99847 74.3157L6.98348 83.7841L11.9685 93.2525L17.8799 98.4615C23.3143 103.25 24.3356 104.036 30.5395 108.199L37.288 112.728L47.893 114.364L58.4983 116L75.7013 110.982C85.1631 108.222 93.0392 105.852 93.204 105.716C93.3687 105.58 98.0696 99.4516 103.651 92.0976C109.232 84.7436 113.912 78.5817 114.052 78.4048C114.202 78.2151 114.655 73.0139 115.153 65.7527L116 53.4224L110.299 38.4489C107.164 30.2134 104.513 23.3093 104.407 23.1062C104.301 22.9033 98.5013 18.2023 91.5187 12.6596L78.8235 2.58201L69.2256 1.2583C58.6012 -0.207246 57.7842 -0.256925 55.439 0.418161ZM66.1434 1.40758L73.3573 2.41951L61.9547 2.42438C55.6833 2.42717 50.665 2.3826 50.803 2.32549C55.6407 0.323909 57.5889 0.207371 66.1434 1.40758ZM78.2799 3.91686C78.2071 4.33194 77.768 7.33524 77.3039 10.5911C76.8399 13.8468 76.4313 16.5394 76.3961 16.5745C76.361 16.6096 70.2176 13.6153 62.744 9.92067L49.1559 3.20278L63.784 3.18258L78.4123 3.16238L78.2799 3.91686ZM44.8769 14.9683C43.6082 21.1325 42.5269 26.2193 42.4738 26.2722C42.4207 26.3252 37.5672 24.7661 31.6879 22.8074L20.9986 19.2465L21.8131 18.7525C37.1269 9.46381 47.0746 3.5178 47.1228 3.62436C47.1563 3.69911 46.1457 8.80381 44.8769 14.9683ZM62.0057 10.1721C69.5851 13.9004 75.7511 16.9859 75.708 17.029C75.3818 17.3543 43.3262 26.2667 43.2724 26.0471C43.2154 25.8142 47.504 4.46636 47.7646 3.68472C47.917 3.22785 47.5323 3.05258 62.0057 10.1721ZM91.2648 13.1573C97.5947 18.184 102.743 22.3274 102.705 22.365C102.615 22.455 77.212 16.9517 77.0717 16.8115C77.0121 16.7521 77.3824 13.7975 77.8945 10.2461C78.4067 6.69451 78.8258 3.694 78.8258 3.57839C78.8258 3.2759 78.672 3.15727 91.2648 13.1573ZM45.0836 3.9547C45.0836 4.11674 21.0954 18.542 20.994 18.441C20.8709 18.3182 23.0546 10.436 23.2717 10.2194C23.3622 10.1291 28.2807 8.67241 34.2018 6.98214C40.1228 5.29211 44.9935 3.89783 45.0254 3.88413C45.0573 3.8702 45.0836 3.90201 45.0836 3.9547ZM21.6707 13.551C21.3605 14.6683 20.8837 16.389 20.6107 17.3749L20.1146 19.1678L12.5866 26.5076C8.44603 30.5445 5.05831 33.7818 5.05831 33.7019C5.05831 33.5376 22.0265 11.5197 22.1531 11.5197C22.1977 11.5197 21.9809 12.4339 21.6707 13.551ZM75.9466 18.5422C75.783 19.0849 74.0933 24.8566 72.1914 31.3684C70.2893 37.8801 68.7122 43.2395 68.6864 43.2782C68.6608 43.317 62.984 39.6607 56.0712 35.1531C49.1585 30.6455 43.537 26.9211 43.5792 26.8765C43.6827 26.7672 75.6105 17.5946 75.964 17.5727C76.179 17.5595 76.1749 17.7842 75.9466 18.5422ZM91.0428 20.4713C97.9542 21.9647 103.647 23.2197 103.693 23.2604C103.791 23.3458 97.9267 45.1389 97.6801 45.6083C97.5739 45.8103 94.042 41.0355 87.6337 32.0277C76.1448 15.8783 77.205 17.4506 77.9185 17.6222C78.2254 17.696 84.1315 18.9782 91.0428 20.4713ZM86.9591 32.0281C92.4879 39.7967 96.971 46.1929 96.9217 46.2421C96.7965 46.367 69.5076 43.6235 69.3545 43.4707C69.2859 43.4022 70.7212 38.2485 72.544 32.0179C76.3901 18.8702 76.7394 17.715 76.8355 17.8232C76.8746 17.8676 81.4303 24.2598 86.9591 32.0281ZM31.354 23.2381C37.0494 25.124 41.7787 26.7326 41.8636 26.8125C41.9486 26.8923 35.6742 31.5278 27.9204 37.1138C20.1669 42.6997 13.7976 47.244 13.7664 47.2122C13.5897 47.0318 20.5539 19.647 20.7578 19.721C20.8902 19.7693 25.6585 21.3519 31.354 23.2381ZM16.3987 34.0961C14.5771 41.3421 13.0029 47.2763 12.9005 47.2833C12.7983 47.29 10.3093 45.1224 7.36977 42.466L2.025 37.6364L10.8138 29.0023C15.6476 24.2537 19.6268 20.4929 19.6566 20.645C19.6864 20.7973 18.2203 26.8503 16.3987 34.0961ZM109.746 38.4753C112.719 46.2783 115.118 52.6977 115.075 52.7401C114.986 52.829 98.4103 46.6885 98.2158 46.4944C98.0638 46.3428 104.014 24.2881 104.207 24.2878C104.28 24.2878 106.772 30.6721 109.746 38.4753ZM56.2169 35.8952C62.7634 40.1726 68.12 43.7365 68.1205 43.8152C68.1212 43.935 44.1584 61.2393 43.2801 61.7531C43.0486 61.8886 42.9892 58.3929 42.9892 44.5917V27.2603L43.6518 27.6893C44.0162 27.9251 49.6704 31.6179 56.2169 35.8952ZM42.5238 44.7169C42.5238 57.5484 42.4559 61.8958 42.2551 61.8958C41.893 61.8958 13.899 48.1603 13.9086 47.9871C13.919 47.8023 42.0817 27.5379 42.3284 27.5379C42.4359 27.5379 42.5238 35.2684 42.5238 44.7169ZM7.47565 43.2532C11.3991 46.8146 12.7399 48.165 12.6592 48.473C12.5994 48.7015 10.3149 54.2275 7.5827 60.753L2.61491 72.6173L2.47086 68.7075C2.39174 66.5571 2.25282 59.052 2.1623 52.0295C2.07201 45.0071 1.94635 39.0787 1.88352 38.8551C1.65523 38.0442 2.27237 38.5297 7.47565 43.2532ZM96.4702 46.7981C96.7951 46.803 96.981 46.9269 96.9356 47.1087C96.8021 47.6461 77.5506 73.9352 77.4084 73.7746C77.2669 73.6147 69.2849 44.6642 69.2849 44.3108C69.2849 44.2022 75.2799 44.7155 82.6073 45.4516C89.9347 46.1875 96.1728 46.7934 96.4702 46.7981ZM72.8067 59.2842C75.0502 67.424 76.8623 74.1159 76.8336 74.1556C76.779 74.2305 43.6494 62.632 43.5042 62.4869C43.4586 62.4414 45.2351 61.0963 47.4521 59.498C49.669 57.8996 55.2528 53.8739 59.8604 50.5521C64.4679 47.2303 68.3478 44.5063 68.4826 44.4986C68.6173 44.491 70.5629 51.1446 72.8067 59.2842ZM1.74459 64.1012L1.7546 69.2085L1.17749 65.8423C0.609687 62.5305 0.604568 62.3843 0.860776 56.7886C1.39181 45.1932 1.71294 47.8497 1.74459 64.1012ZM107.216 50.4939C112.792 52.5786 115.221 53.5905 115.168 53.8071C114.73 55.6048 104.3 79.2821 104.152 78.8164C104.055 78.5116 102.713 71.5764 101.171 63.4048C99.6292 55.2332 98.3049 48.2458 98.2285 47.8773C98.0498 47.0165 97.4355 46.8375 107.216 50.4939ZM100.687 63.7252C102.368 72.5837 103.689 79.8847 103.624 79.9497C103.451 80.1218 77.8843 74.5783 77.9532 74.384C78.0679 74.0606 97.4918 47.4748 97.5614 47.5461C97.6005 47.586 99.0072 54.8666 100.687 63.7252ZM28.0586 55.6278C35.7493 59.3944 42.0175 62.5602 41.9877 62.6631C41.9325 62.8532 21.0368 79.9904 20.9528 79.9147C20.8897 79.8578 13.6684 49.0077 13.6684 48.7952C13.6684 48.5629 12.5209 48.018 28.0586 55.6278ZM16.8257 64.7977C18.7737 73.097 20.3419 79.9151 20.3107 79.9493C20.186 80.0851 2.73312 74.0706 2.73219 73.8916C2.72963 73.3876 13.0773 49.0989 13.1737 49.3826C13.2344 49.5616 14.878 56.4984 16.8257 64.7977ZM114.539 66.6119C114.121 72.7172 113.742 77.7418 113.697 77.778C113.544 77.9013 104.829 80.021 104.759 79.9518C104.721 79.914 106.943 74.6085 109.696 68.1617C112.449 61.715 114.801 56.1908 114.921 55.8857C115.324 54.8685 115.303 55.453 114.539 66.6119ZM45.6654 79.6236C47.2787 88.2885 48.5467 95.4298 48.4832 95.4934C48.3664 95.6097 22.1707 81.0752 21.6488 80.6046C21.4384 80.4147 23.9945 78.2019 31.8878 71.7403C40.0846 65.0303 42.4433 63.2107 42.5697 63.499C42.659 63.7026 44.052 70.9586 45.6654 79.6236ZM60.2548 68.9933C69.3028 72.1688 76.6526 74.82 76.5877 74.885C75.0386 76.4301 49.3516 95.6334 49.219 95.3453C49.0314 94.9384 43.2219 63.9696 43.2219 63.3772C43.2219 63.1736 43.353 63.0547 43.5128 63.1132C43.6729 63.1717 51.2068 65.8177 60.2548 68.9933ZM12.0104 77.7817C16.6587 79.3687 20.4862 80.7007 20.516 80.7416C20.5458 80.7825 21.1676 85.3602 21.8978 90.9143C22.6278 96.4685 23.281 101.274 23.3489 101.593C23.4588 102.108 23.4336 102.134 23.1262 101.825C22.8193 101.517 3.71909 75.7838 3.32605 75.1494C3.06915 74.7348 3.22157 74.7807 12.0104 77.7817ZM90.6356 77.8451C97.5788 79.341 103.26 80.6292 103.26 80.7075C103.26 80.8721 79.8688 99.813 79.5219 99.9293C79.395 99.972 79.2912 99.7074 79.2912 99.3415C79.2912 98.9757 78.9254 93.5608 78.4782 87.3086C77.5704 74.6124 77.5976 75.129 77.8368 75.1266C77.9329 75.1257 83.6924 76.3491 90.6356 77.8451ZM77.969 87.8105C78.4495 94.6582 78.8128 100.285 78.776 100.315C78.6166 100.445 49.9697 96.1418 50.0251 95.9965C50.0961 95.8106 76.7843 75.3799 76.9716 75.3681C77.0396 75.3639 77.4885 80.9631 77.969 87.8105ZM13.0066 89.1732C17.5399 95.3019 21.3458 100.473 21.4643 100.665C21.7747 101.168 20.337 99.9686 16.1118 96.2003L12.3885 92.8799L8.58938 85.687C4.94242 78.7827 4.37137 77.6584 4.6413 77.914C4.70879 77.9779 8.47326 83.0445 13.0066 89.1732ZM113.033 78.7382C113.033 78.8547 95.0947 102.567 94.6016 103.102C94.4825 103.231 94.4876 103.077 94.613 102.754C95.2674 101.067 104.198 81.064 104.376 80.8867C104.801 80.4623 113.033 78.4192 113.033 78.7382ZM34.7768 88.6242C42.1175 92.7272 48.0615 96.146 47.9857 96.2217C47.7592 96.4476 24.2939 102.985 24.1664 102.858C24.102 102.793 23.4488 98.2776 22.7148 92.8228C21.9811 87.3683 21.3195 82.5136 21.245 82.0347C21.0638 80.8707 19.8316 80.2706 34.7768 88.6242ZM98.1108 93.4914C95.2741 99.9265 92.9333 105.218 92.9089 105.25C92.8605 105.314 79.9842 100.737 79.8586 100.611C79.8167 100.57 85.0356 96.2869 91.4559 91.0942C97.876 85.9013 103.16 81.6839 103.199 81.7222C103.237 81.7603 100.947 87.0565 98.1108 93.4914ZM53.3886 105.83C55.8234 110.841 57.7783 114.985 57.7327 115.038C57.6236 115.165 25.0798 103.605 25.0749 103.437C25.0707 103.299 47.9743 96.777 48.5932 96.7401C48.8548 96.7243 50.2457 99.361 53.3886 105.83ZM63.6972 98.6962C71.1861 99.784 77.5548 100.728 77.8499 100.793C78.2901 100.891 76.6642 102.163 68.7744 107.896C63.4878 111.737 59.0305 114.985 58.8695 115.115C58.6466 115.294 58.1132 114.389 56.6288 111.315C55.5572 109.096 53.5236 104.904 52.1094 101.999C50.6953 99.0947 49.6604 96.718 49.8098 96.718C49.959 96.718 56.2083 97.6081 63.6972 98.6962ZM85.2017 103.135C92.3411 105.689 91.9385 105.536 91.8233 105.651C91.6544 105.819 60.6053 114.833 60.5124 114.741C60.3695 114.598 78.9119 101.151 79.2677 101.14C79.4469 101.134 82.1172 102.032 85.2017 103.135ZM40.8532 109.712C48.5411 112.453 54.7944 114.733 54.7492 114.778C54.7043 114.823 50.8093 114.262 46.094 113.531L37.5207 112.201L31.9939 108.511C27.1727 105.292 25.867 104.345 26.6713 104.65C26.7837 104.692 33.1656 106.97 40.8532 109.712Z" fill="#00474B"/>
</svg>
