<?xml version="1.0" standalone="no"?>
<!DOCTYPE svg PUBLIC "-//W3C//DTD SVG 20010904//EN"
 "http://www.w3.org/TR/2001/REC-SVG-20010904/DTD/svg10.dtd">
<svg version="1.0" xmlns="http://www.w3.org/2000/svg"
 width="1280.000000pt" height="640.000000pt" viewBox="0 0 1280.000000 640.000000"
 preserveAspectRatio="xMidYMid meet">
<metadata>
Created by potrace 1.15, written by Peter Selinger 2001-2017
</metadata>
<g transform="translate(0.000000,640.000000) scale(0.100000,-0.100000)"
fill="#000000" stroke="none">
<path d="M2685 6230 c-704 -63 -1272 -332 -1787 -844 -610 -606 -922 -1406
-895 -2291 23 -722 245 -1320 694 -1861 94 -115 314 -335 424 -426 545 -450
1188 -668 1904 -644 630 20 1149 207 1645 592 143 111 408 373 524 519 307
386 517 836 601 1288 l19 97 2075 0 2076 0 0 -693 c0 -686 0 -692 21 -738 25
-54 86 -124 125 -145 22 -11 81 -14 291 -14 300 1 299 1 368 84 71 86 70 69
70 828 l0 678 185 0 185 0 0 -692 c0 -787 -5 -734 86 -819 86 -80 89 -80 494
-77 403 3 391 1 480 88 82 80 80 55 80 825 l0 672 63 7 c154 16 288 137 348
314 31 89 33 250 5 332 -52 155 -178 284 -315 324 -49 14 -368 16 -3341 16
l-3286 0 -17 108 c-92 578 -377 1134 -817 1595 -473 494 -1014 775 -1665 862
-138 18 -508 27 -640 15z"/>
</g>
</svg>
