<svg width="67" height="120" viewBox="0 0 67 120" fill="none" xmlns="http://www.w3.org/2000/svg">
<path d="M4.38667 7.89609V100.017L8.33471 103.965H33.339V107.036L28.9523 111.423L33.339 115.809V119.757H16.2308L13.5549 117.081L10.9667 119.757H5.70268L1.75464 115.809V5.26406L7.0187 0H33.339V2.63203H9.65073L4.38667 7.89609Z" fill="#00474B"/>
<path d="M33.339 5.26407V92.121H4.38672V7.8961L7.01875 5.26407H33.339Z" fill="#FFBB33"/>
<path d="M62.2913 7.8961V92.121H33.339V5.26407H59.6593L62.2913 7.8961Z" fill="#FEEF7E"/>
<path d="M33.339 107.036V115.809L28.9523 111.423L33.339 107.036Z" fill="#DD5F00"/>
<path d="M37.7257 111.423L33.339 115.809V107.036L37.7257 111.423Z" fill="#FFBB33"/>
<path d="M64.9233 5.26406V115.809L60.9753 119.757H33.339V115.809L37.7257 111.423L33.339 107.036V103.965H58.3433L62.2913 100.017V7.89609L57.0273 2.63203H33.339V0H59.6593L64.9233 5.26406Z" fill="#00474B"/>
<path d="M0 24.5656L1.75469 26.3203V15.7922L0 17.5469V24.5656Z" fill="#26C2AD"/>
<path d="M66.678 17.5469L64.9233 15.7922V31.5844L66.678 29.8297V17.5469Z" fill="#00474B"/>
<path d="M0 40.3578L1.75469 42.1125V31.5844L0 33.3391V40.3578Z" fill="#26C2AD"/>
<path d="M59.6593 5.26411H7.01868L9.65071 2.63208H57.0272L59.6593 5.26411Z" fill="#DD5F00"/>
<path d="M62.2913 92.1211V100.017L58.3433 103.965H33.339V92.1211H62.2913Z" fill="#FFBB33"/>
<path d="M33.339 92.1211V103.965H8.33476L4.38672 100.017V92.1211H33.339Z" fill="#DD5F00"/>
<path d="M33.339 10.5281H7.01868V65.8008H33.339V10.5281Z" fill="#DD5F00"/>
<path d="M59.6593 10.5281H33.339V65.8008H59.6593V10.5281Z" fill="#FFBB33"/>
<path d="M17.5468 68.4328H7.01868L10.9667 72.3808H24.1269L28.0749 68.4328H17.5468Z" fill="#FEEF7E"/>
<path d="M51.7934 71.0602L49.1569 73.6968L51.7934 76.3333L54.43 73.6968L51.7934 71.0602Z" fill="#00474B"/>
<path d="M54.4255 68.4281L51.7889 71.0647L54.4255 73.7013L57.0621 71.0647L54.4255 68.4281Z" fill="#00474B"/>
<path d="M49.1615 68.4281L46.5249 71.0647L49.1615 73.7013L51.798 71.0647L49.1615 68.4281Z" fill="#00474B"/>
<path d="M17.5465 42.1032L12.2733 47.3764L17.5465 52.6495L22.8196 47.3764L17.5465 42.1032Z" fill="#00474B"/>
<path d="M22.811 54.834V65.8008H12.2828V54.834L14.9149 52.2019L17.5469 54.834L20.1789 52.2019L22.811 54.834Z" fill="#00474B"/>
<path d="M33.339 45.1832V55.7113L28.075 50.4473L33.339 45.1832Z" fill="#00474B"/>
<path d="M33.339 57.9047V65.8008H28.075V57.9047L30.707 55.2727L33.339 57.9047Z" fill="#00474B"/>
<path d="M49.1307 39.9101L43.8575 45.1832L49.1307 50.4563L54.4038 45.1832L49.1307 39.9101Z" fill="#26C2AD"/>
<path d="M54.3952 52.6406V65.8008H43.8671V52.6406L46.4991 50.0086L49.1311 52.6406L51.7632 50.0086L54.3952 52.6406Z" fill="#26C2AD"/>
<path d="M38.603 50.4473L33.339 55.7113V45.1832L38.603 50.4473Z" fill="#26C2AD"/>
<path d="M38.603 57.9047V65.8008H33.339V57.9047L35.971 55.2727L38.603 57.9047Z" fill="#26C2AD"/>
<path d="M33.339 78.9609H7.01868V82.0316H33.339V78.9609Z" fill="#00474B"/>
<path d="M59.6593 78.9609H33.339V82.0316H59.6593V78.9609Z" fill="#26C2AD"/>
<path d="M33.339 85.1023H7.01868V88.173H33.339V85.1023Z" fill="#00474B"/>
<path d="M49.1312 85.1023H33.339V88.173H49.1312V85.1023Z" fill="#26C2AD"/>
</svg>
