<svg width="143" height="78" viewBox="0 0 143 78" fill="none" xmlns="http://www.w3.org/2000/svg">
<path d="M130 78H13V53.625L15.4375 51.1875L13 48.75V0H100.75L105.625 4.875L110.5 0H130V78Z" fill="#00474B"/>
<path d="M130 78H71.5V0H100.75L105.625 4.875L110.5 0H130V78Z" fill="#00474B"/>
<path d="M16.25 69.8754V74.7504L18.6875 72.3129L16.25 69.8754Z" fill="#FEE94E"/>
<path d="M26.0001 69.8754V74.7504L23.5626 72.3129L26.0001 69.8754Z" fill="#FEE94E"/>
<path d="M26.8125 73.125V71.5L27.625 72.3125L26.8125 73.125Z" fill="#FEE94E"/>
<path d="M71.5958 44.7828V66.9593L49.4193 44.7828L60.5076 33.6945L71.5958 44.7828Z" fill="#DD5F00"/>
<path d="M71.5954 66.9589V77.9995H54.963V50.3265L71.5954 66.9589Z" fill="#FFBB33"/>
<path d="M93.7721 44.7828L71.5956 66.9593V44.7828L82.6838 33.6945L93.7721 44.7828Z" fill="#FFBB33"/>
<path d="M88.228 50.3265V77.9995H71.5956V66.9589L88.228 50.3265Z" fill="#DD5F00"/>
<path d="M82.6838 28.1503L71.5956 39.2385V17.062L82.6838 28.1503Z" fill="#FEEF7E"/>
<path d="M99.3162 61.4148L88.2279 72.503V50.3265L99.3162 61.4148Z" fill="#FEE94E"/>
<path d="M43.8748 61.4148L54.963 72.503V50.3265L43.8748 61.4148Z" fill="#FEEF7E"/>
<path d="M71.5956 17.062V39.2385L60.5073 28.1503L71.5956 17.062Z" fill="#FEE94E"/>
<path d="M32.5 73.1246L34.9375 70.6871L37.375 73.1246L39.8125 70.6871L42.25 73.1246H37.375H32.5Z" fill="#FEE94E"/>
<rect x="16.25" y="65.0001" width="109.688" height="1.625" fill="#073B3E"/>
<rect x="119.438" y="69.8754" width="6.5" height="4.875" fill="#FEE94E"/>
<rect x="16.25" y="65.0001" width="2.4375" height="1.625" fill="#FFBB33"/>
<path d="M0 11.3752L13 24.3752V11.3752L6.5 4.87523L0 11.3752Z" fill="#DD5F00"/>
<path d="M26.0001 11.3752L13.0001 24.3752V11.3752L19.5001 4.87523L26.0001 11.3752Z" fill="#FFBB33"/>
<path d="M117 43.063L130 56.063V43.063L123.5 36.563L117 43.063Z" fill="#FEE94E"/>
<path d="M143 43.063L130 56.063V43.063L136.5 36.563L143 43.063Z" fill="#FEE94E"/>
<rect x="30.0625" y="9.75046" width="31.6875" height="2.4375" fill="#FFBB33"/>
<rect x="30.0625" y="14.6244" width="17.0625" height="2.4375" fill="#FEE94E"/>
</svg>
