<svg width="39" height="39" viewBox="0 0 39 39" fill="none" xmlns="http://www.w3.org/2000/svg">
<path fill-rule="evenodd" clip-rule="evenodd" d="M34.125 22.75C34.125 30.8272 27.5772 37.375 19.5 37.375C11.4228 37.375 4.875 30.8272 4.875 22.75C4.875 14.6728 11.4228 8.125 19.5 8.125C27.5772 8.125 34.125 14.6728 34.125 22.75ZM19.5 32.125C24.6777 32.125 28.875 27.9277 28.875 22.75C28.875 17.5723 24.6777 13.375 19.5 13.375C14.3223 13.375 10.125 17.5723 10.125 22.75C10.125 27.9277 14.3223 32.125 19.5 32.125ZM19.5 34.125C25.7822 34.125 30.875 29.0322 30.875 22.75C30.875 16.4678 25.7822 11.375 19.5 11.375C13.2178 11.375 8.125 16.4678 8.125 22.75C8.125 29.0322 13.2178 34.125 19.5 34.125ZM20.5 17.875C20.5 17.3227 20.0523 16.875 19.5 16.875C18.9477 16.875 18.5 17.3227 18.5 17.875V22.75C18.5 23.3023 18.9477 23.75 19.5 23.75C20.0523 23.75 20.5 23.3023 20.5 22.75V17.875Z" fill="white"/>
<path d="M28.4375 12.1875L30.875 9.75" stroke="white" stroke-width="2" stroke-linecap="round"/>
<path d="M16.3607 3.85221C16.5459 3.67945 16.9539 3.52678 17.5215 3.4179C18.0891 3.30902 18.7846 3.25 19.5 3.25C20.2154 3.25 20.9109 3.30902 21.4785 3.4179C22.0461 3.52678 22.4541 3.67944 22.6393 3.85221" stroke="white" stroke-width="2" stroke-linecap="round"/>
</svg>
