<svg width="162" height="162" viewBox="0 0 162 162" fill="none" xmlns="http://www.w3.org/2000/svg">
<path d="M101.245 47.5956L121.49 67.8407L121.49 108.331L101.245 128.576L81 128.576L81 47.5956L101.245 47.5956Z" fill="#FEEF7E"/>
<path d="M60.7548 128.576L40.5096 108.331L40.5096 67.8402L60.7548 47.5951L81 47.5951L81 128.576L60.7548 128.576Z" fill="#FFBB33"/>
<path d="M99.2207 51.6443H81H62.7794L44.5587 69.865V106.306L62.7794 124.527H81H99.2207L117.441 106.306V69.865L99.2207 51.6443Z" fill="#00474B"/>
<path d="M97.1963 55.6936H81.0002H64.8041L48.6079 71.8898V104.282L64.8041 120.478H81.0002H97.1963L113.392 104.282V71.8898L97.1963 55.6936Z" fill="#00474B"/>
<path d="M99.2207 51.6443H81V124.527H99.2207L117.441 106.306V69.865L99.2207 51.6443Z" fill="#00474B"/>
<path d="M97.1961 55.6936H81V120.478H97.1961L113.392 104.282V71.8898L97.1961 55.6936Z" fill="#00474B"/>
<rect x="76.951" y="39.4972" width="8.09807" height="8.09807" fill="#00474B"/>
<path d="M74.9264 115.417H87.0735L80.9999 121.49L74.9264 115.417Z" fill="#FFBB33"/>
<path d="M81 115.417H87.0735L81 121.49V115.417Z" fill="#FEEF7E"/>
<path d="M105.294 94.1592L105.294 82.0121L111.368 88.0857L105.294 94.1592Z" fill="#FFBB33"/>
<path d="M105.294 88.0857L105.294 82.0121L111.368 88.0857L105.294 88.0857Z" fill="#FEEF7E"/>
<rect x="81" y="39.4972" width="4.04904" height="8.09807" fill="#00474B"/>
<rect x="68.8529" y="33.4237" width="24.2942" height="6.07355" fill="#DD5F00"/>
<rect x="81" y="33.4237" width="12.1471" height="6.07355" fill="#FFBB33"/>
<path d="M78.9754 84.0366L74.9264 88.0857L80.9999 94.1592L87.0735 88.0857L83.0245 84.0366V57.7179L78.9754 61.7669V84.0366Z" fill="#FFBB33"/>
<path d="M81 59.7424V88.5918V94.1592L87.0735 88.0857L83.0245 84.0366V57.7179L81 59.7424Z" fill="#FEEF7E"/>
<path d="M111.368 51.6443L108.331 54.6811L117.441 63.7915L120.478 60.7547L111.368 51.6443Z" fill="#FFBB33"/>
<path d="M50.6322 51.6443L53.6689 54.6811L44.5586 63.7915L41.5218 60.7547L50.6322 51.6443Z" fill="#DD5F00"/>
<path d="M105.294 63.7915H99.2207L105.294 69.865V63.7915Z" fill="#FEEF7E"/>
<path d="M56.7057 63.7915H62.7793L56.7057 69.865V63.7915Z" fill="#FFBB33"/>
<path d="M105.294 112.38H99.2207L105.294 106.306V112.38Z" fill="#FEEF7E"/>
<path d="M56.7057 112.38H62.7793L56.7057 106.306V112.38Z" fill="#FFBB33"/>
<path d="M56.7058 94.1592L56.7058 82.0121L50.6323 88.0857L56.7058 94.1592Z" fill="#FFBB33"/>
<path d="M56.7058 88.0857L56.7058 82.0121L50.6323 88.0857L56.7058 88.0857Z" fill="#FEEF7E"/>
</svg>